HIERARCHY
ROOT Hips
{
  OFFSET 0 0 0
  CHANNELS 6 Xposition Yposition Zposition Zrotation Xrotation Yrotation
  JOINT Spine
  {
    OFFSET 0 10.1816 0.131521
    CHANNELS 3 Zrotation Xrotation Yrotation
    JOINT Spine1
    {
      OFFSET 0 10.0835 -1.0008
      CHANNELS 3 Zrotation Xrotation Yrotation
      JOINT Spine2
      {
        OFFSET 0 9.10001 -1.37342
        CHANNELS 3 Zrotation Xrotation Yrotation
        JOINT Neck
        {
          OFFSET 0 16.6717 -2.51617
          CHANNELS 3 Zrotation Xrotation Yrotation
          JOINT Head
          {
            OFFSET 0 9.61788 1.68501
            CHANNELS 3 Zrotation Xrotation Yrotation
            End Site
            {
              OFFSET 0 0 0
            }
          }
        }
        JOINT LeftShoulder
        {
          OFFSET 4.57045 10.946 -2.62799
          CHANNELS 3 Zrotation Xrotation Yrotation
          JOINT LeftArm
          {
            OFFSET 10.5924 -0.524583 -2.23212
            CHANNELS 3 Zrotation Xrotation Yrotation
            JOINT LeftForeArm
            {
              OFFSET 27.8415 -8.94286e-05 3.74589e-05
              CHANNELS 3 Zrotation Xrotation Yrotation
              JOINT LeftHand
              {
                OFFSET 28.3288 -1.74407e-05 3.78045e-05
                CHANNELS 3 Zrotation Xrotation Yrotation
                End Site
                {
                  OFFSET 0 0 0
                }
              }
            }
          }
        }
        JOINT RightShoulder
        {
          OFFSET -4.56997 10.9462 -2.62802
          CHANNELS 3 Zrotation Xrotation Yrotation
          JOINT RightArm
          {
            OFFSET -10.5928 -0.524798 -2.2321
            CHANNELS 3 Zrotation Xrotation Yrotation
            JOINT RightForeArm
            {
              OFFSET -27.8415 -3.30792e-05 1.16763e-05
              CHANNELS 3 Zrotation Xrotation Yrotation
              JOINT RightHand
              {
                OFFSET -28.3288 0 5.5816e-05
                CHANNELS 3 Zrotation Xrotation Yrotation
                End Site
                {
                  OFFSET 0 0 0
                }
              }
            }
          }
        }
      }
    }
  }
  JOINT LeftUpLeg
  {
    OFFSET 8.20778 -6.75171 -1.59956
    CHANNELS 3 Zrotation Xrotation Yrotation
    JOINT LeftLeg
    {
      OFFSET 0 -44.3705 0.284643
      CHANNELS 3 Zrotation Xrotation Yrotation
      JOINT LeftFoot
      {
        OFFSET 0 -44.4279 -2.98219
        CHANNELS 3 Zrotation Xrotation Yrotation
        JOINT LeftToeBase
        {
          OFFSET 0 -8.72867 10.7106
          CHANNELS 3 Zrotation Xrotation Yrotation
          End Site
          {
            OFFSET 0 0 0
          }
        }
      }
    }
  }
  JOINT RightUpLeg
  {
    OFFSET -8.2078 -6.75166 -1.59956
    CHANNELS 3 Zrotation Xrotation Yrotation
    JOINT RightLeg
    {
      OFFSET 0 -44.3705 0.286156
      CHANNELS 3 Zrotation Xrotation Yrotation
      JOINT RightFoot
      {
        OFFSET 0 -44.4277 -2.98379
        CHANNELS 3 Zrotation Xrotation Yrotation
        JOINT RightToeBase
        {
          OFFSET 0 -8.72867 10.7106
          CHANNELS 3 Zrotation Xrotation Yrotation
          End Site
          {
            OFFSET 0 0 0
          }
        }
      }
    }
  }
}
MOTION
Frames:	17
Frame Time:	0.0333333
-10.191 131.746 -8.30515 17.12 -14.7404 70.386 8.41374 23.3473 9.56783 -0.133721 6.03497 1.89484 -0.0482268 6.09105 1.76349 3.31194 7.37514 -0.565784 -1.23578 12.2172 4.06449 -1.08424 0.396568 0.478455 -35.8533 16.4315 -16.5861 1.16979e-05 8.50943e-05 -61.4682 16.4936 -64.7928 -15.0643 -0.31784 0.56659 3.41714 4.50685 -10.0349 24.9704 6.74101e-05 4.4906e-05 11.1905 -56.7967 -59.9414 -16.3588 25.4402 -30.1803 -12.7876 -173.53 65.1239 175.43 -36.884 50.6289 2.49519 6.93664e-06 -1.60169 -1.31085e-05 -68.9846 -33.6627 -54.185 0.362283 13.5841 -9.12759 30.7003 23.3591 -10.8915 7.97456e-06 -3.59819 -1.7254e-05 
-14.7041 129.861 -6.76781 14.4282 -12.3527 72.3822 8.97684 25.9062 6.44992 -0.676039 6.23505 1.57056 -0.607791 6.29466 1.41498 3.34055 8.12573 -0.823208 -0.661157 15.5303 2.91897 -0.0385593 0.424138 -0.82546 -33.5275 0.160881 -22.0744 2.26398e-05 6.07957e-05 -70.0466 10.6172 -49.1877 -25.3923 -0.574428 0.476774 3.77959 2.55647 -25.809 20.2909 6.09369e-05 4.31235e-05 19.6017 -47.0391 -63.0349 -14.7219 26.7149 -39.2444 -25.9218 -164.787 55.3166 163.369 -32.7114 44.3105 -6.61568 7.10205e-06 -0.878738 -1.31049e-05 -104.863 -51.2739 -90.1922 7.19141 41.9274 -13.9178 31.0026 23.1143 -14.7893 1.12004e-05 0.649227 -2.69701e-05 
-17.9939 126.861 -3.8353 11.4097 -13.3154 78.4121 13.4066 25.9621 0.988645 -1.12464 6.63139 1.04863 -1.06216 6.6835 0.830437 3.85749 8.68375 -1.38221 2.43155 17.3027 -0.283547 0.427968 0.370875 -3.2186 -26.783 -16.853 -27.9001 2.91021e-05 3.8601e-05 -77.4863 12.8442 -45.3275 -27.5643 -0.561226 0.410466 3.48187 -1.16497 -37.6153 9.38261 4.6568e-05 3.48115e-05 40.4944 -42.691 -57.7255 -22.6823 27.0155 -48.5411 -23.9854 -165.818 50.7155 163.69 -32.2259 38.7417 -3.7666 7.26885e-06 -0.149476 -1.31035e-05 -139.585 -54.0662 -130.563 14.3493 53.7776 -20.5443 31.046 19.3405 -15.3853 1.15305e-05 -1.38367 -3.69381e-05 
-19.4976 124.903 0.470966 10.5035 -16.1415 88.4464 17.9484 22.7533 -5.45262 -0.744631 7.57719 0.212253 -0.717248 7.59176 -0.0665505 4.13014 8.85266 -1.80746 8.9506 16.5399 -5.19046 0.472613 0.244444 -5.98868 -17.279 -31.3052 -33.2019 3.10477e-05 2.84512e-05 -80.8105 16.1865 -45.4846 -28.3455 -0.569934 0.419144 2.93853 -2.02738 -45.494 -0.786471 3.57617e-05 2.12747e-05 62.3057 -32.1715 -42.3366 -21.6735 26.0731 -55.6648 -1.79763 -174.827 57.1322 171.481 -31.6189 22.1761 2.97456 7.55033e-06 1.0812 -1.31057e-05 -159.113 -57.8835 -159.787 12.4211 47.4091 -17.6436 30.816 12.5076 -10.4824 1.0714e-05 -3.57363 -4.66425e-05 
-18.8539 124.043 3.94362 11.9346 -16.6688 100.936 18.728 16.3463 -11.1382 0.0485942 9.12769 -0.789291 -0.0163766 9.09875 -1.11111 3.86067 8.10492 -2.10016 15.9579 15.0038 -10.3819 0.506762 -0.0175033 -5.9302 -14.4455 -36.6422 -44.098 2.96979e-05 3.5811e-05 -78.4038 19.1624 -44.9182 -26.8883 -0.320605 0.471161 2.2202 0.971616 -48.6934 -7.51162 3.13639e-05 8.7618e-06 78.9652 -19.5712 -25.7243 -12.4493 19.0906 -52.7735 14.4536 -178.361 76.8041 -174.566 -29.3678 -3.78651 -1.02542 7.38762e-06 0.369843 -1.31037e-05 -175.072 -66.4475 177.264 10.9123 38.3102 -15.0348 30.3054 10.5568 -2.11472 1.35385e-05 -0.967441 -5.53046e-05 
-16.4999 121.475 7.26777 15.0276 -14.0112 114.984 16.6984 9.69161 -15.6949 0.0781417 10.926 -1.58481 -0.119718 10.8519 -1.95475 4.05463 5.98235 -2.76878 19.3533 13.796 -14.2799 0.614933 -0.293566 -3.39203 -20.0598 -28.6738 -59.5858 2.88011e-05 3.9933e-05 -77.0471 23.0923 -46.1257 -14.9368 0.472171 0.390593 0.339447 7.08865 -40.8977 -14.0447 3.05544e-05 -1.83581e-06 92.2984 -14.0256 -19.5995 -2.31937 12.8888 -40.5987 15.8954 -60.5235 84.0216 71.461 -29.6682 -17.5218 -14.6031 6.18691e-06 -4.86859 -1.31509e-05 155.337 -75.5933 145.381 11.4235 36.8739 -9.36339 29.7456 7.65601 -0.249911 1.26747e-05 -2.08692 -6.26586e-05 
-12.7534 120.684 8.70963 19.3304 -9.50983 130.476 13.3779 4.34023 -18.71 -0.532634 12.9275 -2.06138 -0.900457 12.8118 -2.45887 4.963 2.77715 -3.51377 19.6768 12.5937 -15.544 0.679788 -0.442458 -1.28726 -23.4687 -11.5514 -69.3168 3.07918e-05 2.99905e-05 -80.3086 24.0469 -46.6016 -1.6445 1.59294 0.123208 -2.31365 18.576 -24.6047 -20.6147 3.0993e-05 -6.58031e-06 98.2648 -10.1069 -25.2052 5.15146 15.7677 -29.9912 20.2274 -48.4988 78.0855 58.1327 -26.0824 -9.38892 -19.9884 5.88992e-06 -6.15517 -1.31794e-05 83.1377 -77.6192 74.6273 9.54565 37.0589 -0.364863 29.9276 3.41464 1.0845 1.11485e-05 -3.28933 -6.80797e-05 
-8.47512 117.518 9.98725 22.1105 -3.84149 148.742 6.9663 0.0861988 -20.4303 -0.237032 14.8494 -2.59076 -0.832171 14.7542 -2.90394 5.69753 -0.644611 -3.75464 20.3535 10.3525 -14.813 0.670018 -0.434839 -0.175349 -19.8253 6.01089 -71.5669 3.25446e-05 1.67553e-05 -84.6034 24.4946 -45.834 0.22027 3.06814 -0.20308 -4.34634 37.2265 -10.4458 -27.0845 3.05432e-05 -1.53015e-06 91.9156 -2.16896 -33.1723 8.39809 21.2181 -18.0219 29.6619 -29.5482 71.383 34.6305 -26.325 6.93427 -5.41042 6.59397e-06 -3.09741 -1.31226e-05 41.4622 -68.0643 36.512 3.35734 32.3697 4.03345 29.3093 6.62965 11.9488 1.16338e-05 -2.51878 -7.08718e-05 
-4.35636 113.095 10.3202 21.2895 0.621395 171.003 -1.82431 -2.36567 -20.497 1.2358 15.8017 -3.18216 0.457633 15.8077 -3.28601 6.35638 -3.62125 -3.96675 21.424 6.43138 -14.3325 0.617041 -0.305205 -0.712725 -11.8092 17.2558 -71.2593 3.33262e-05 1.69163e-06 -89.4559 38.4994 -42.9101 5.19093 5.45465 -0.555417 -5.38363 58.5682 2.19454 -33.8609 3.09468e-05 6.25381e-06 82.1479 5.24623 -27.5477 9.38987 29.4652 -10.7352 37.6183 -24.5959 67.9531 26.6446 -27.0682 12.5889 20.3374 4.61646e-06 -11.5867 -1.3376e-05 23.0205 -60.0487 21.318 -3.32401 27.6047 7.48499 26.602 7.79119 21.2611 1.22957e-05 -1.39793 -7.06002e-05 
-0.360962 106.965 9.7999 19.9364 1.13526 -166.007 -8.07114 -4.18423 -17.122 1.86787 15.764 -3.08815 1.11265 15.8433 -3.00326 7.70818 -6.06425 -4.38494 19.8975 2.07334 -14.0602 0.570311 -0.170062 -3.41959 -3.99554 19.8495 -67.093 3.25106e-05 -1.71115e-05 -95.5117 49.7741 -37.896 13.76 8.76841 -0.95866 -5.93391 65.8064 19.357 -32.9724 3.12173e-05 7.97344e-06 79.9689 1.88539 -2.22991 17.8716 40.1822 -12.4919 45.5316 -25.5094 68.9257 29.2701 -25.2851 12.853 32.8516 3.0909e-06 -17.8202 -1.37638e-05 12.3378 -54.5723 12.6521 -7.4056 23.7014 9.37906 25.4604 7.42176 23.2271 1.14769e-05 -1.17421 -6.67641e-05 
2.89061 98.5612 8.97287 20.4696 -0.474298 -147.157 -9.53193 -5.79427 -12.1991 0.541155 15.065 -2.30952 -0.0361788 15.1112 -2.14483 8.99058 -7.38467 -3.91625 14.8291 -0.306925 -10.2256 0.55014 -0.113097 -5.05354 -4.57425 16.8711 -57.0717 3.15868e-05 -2.48913e-05 -98.0316 32.9299 -37.963 -0.135748 11.4279 -1.28221 -6.1423 48.721 30.9325 -18.2448 3.15943e-05 9.87024e-06 77.5482 -29.0494 9.93612 39.0881 45.2574 -15.9727 51.3362 -20.8121 64.535 28.5153 -26.3077 12.8362 24.2653 1.51231e-06 -23.8418 -1.43259e-05 7.15143 -55.7077 7.85803 -6.67769 27.558 7.58793 27.5208 10.9735 19.377 1.0105e-05 -1.07723 -5.87813e-05 
4.84101 89.9221 8.17794 21.326 -1.41992 -132.649 -8.41824 -4.70114 -9.46077 -1.45719 13.2367 -1.67251 -1.86059 13.2148 -1.5186 8.77211 -6.50782 -2.0977 8.36225 -2.63906 -1.30314 0.541932 -0.0679645 -3.28784 -11.1371 12.5898 -46.8241 3.26713e-05 -1.53546e-05 -94.9443 -2.23753 -30.8665 -35.7405 11.2457 -1.41845 -6.44762 29.4024 21.8515 -0.704255 3.32803e-05 1.56621e-05 69.9925 -50.7694 -1.8693 47.5826 50.1277 -19.4218 55.0267 -24.6936 68.1607 35.4541 -25.7997 6.80713 6.23488 -4.6284e-06 -42.3197 -1.77217e-05 2.52293 -63.2529 2.31198 -3.81083 41.3769 6.67617 23.4052 6.36627 17.341 7.27001e-06 -2.26635 -4.61328e-05 
6.84567 81.4204 8.16326 20.841 -0.605023 -120.28 -6.57724 0.241396 -8.61719 -2.7189 10.7598 -1.40646 -2.99227 10.709 -1.31036 7.17858 -4.36301 0.0611814 3.73242 -7.29302 7.83762 0.477615 -0.0103631 0.12714 -13.8286 8.24313 -41.4753 3.33248e-05 -1.8313e-06 -90.589 -23.1244 -8.63292 -53.479 8.05993 -1.35608 -7.62141 32.5644 0.187199 8.53207 3.3128e-05 1.52373e-05 70.5574 -38.6016 -21.2967 32.1528 59.2644 -26.0096 61.7142 -53.0124 82.3511 64.2243 -25.7607 -2.70906 1.1408 -2.28154e-06 -36.1838 -1.62346e-05 -7.44043 -72.9283 -6.45401 -4.64425 58.6726 8.1782 16.3106 -2.98788 21.0139 4.24004e-06 -4.54185 -2.8271e-05 
8.30219 74.9714 7.90451 18.3157 0.873092 -109.114 -4.87952 7.75623 -7.6035 -3.00972 8.98814 -1.15679 -3.17505 8.94478 -1.12169 5.34753 -3.00418 1.69051 1.36181 -11.908 13.9733 0.292965 -0.0291323 3.14832 -17.8281 1.95053 -36.8309 3.31213e-05 8.70868e-06 -87.1981 -34.9858 11.0275 -57.9057 3.84829 -1.00565 -8.63671 49.3377 -14.6766 16.205 3.1549e-05 9.66263e-06 77.8142 -5.67254 -36.4837 21.4402 64.2462 -35.3473 65.443 -173.017 84.0352 -178.651 -27.3469 -11.3952 10.995 9.36195e-09 -29.1014 -1.49966e-05 -30.2924 -78.2247 -25.3749 -12.7831 72.8878 16.2238 18.2306 -8.15666 19.2093 3.0928e-06 -3.21155 -4.48956e-06 
8.68911 71.4661 6.84728 15.7298 0.933041 -100.413 -5.0068 14.7456 -5.32848 -2.49929 7.93448 -0.839209 -2.58163 7.913 -0.827544 3.91281 -2.60457 2.81318 -0.60942 -14.1045 18.2796 0.0152974 -0.108143 4.76892 -28.9171 -8.32875 -29.2872 3.20908e-05 2.10117e-05 -83.2267 -30.5366 19.1076 -51.4127 0.651546 -0.383497 -6.18398 58.3869 -18.9449 25.4516 3.13052e-05 8.45514e-06 79.356 27.8387 -36.9457 38.8432 64.6373 -43.3672 64.3473 170.004 79.2713 -165.035 -25.9419 -15.8027 20.9874 1.29615e-07 -28.6984 -1.49384e-05 -49.0302 -78.3825 -40.2367 -32.1859 81.8159 36.8817 17.3314 -13.6361 10.5736 -2.78454e-06 -1.24819 4.98423e-05 
9.17039 69.2511 5.28542 15.9249 -0.521065 -94.9931 -7.14459 18.857 -1.75478 -1.7085 6.70955 -0.463949 -1.73878 6.70801 -0.436405 2.7536 -2.39944 3.62839 -2.8341 -14.7112 21.3888 -0.265431 -0.134384 4.84224 -36.3314 -18.9854 -23.3649 2.90427e-05 3.88677e-05 -77.3984 -7.89938 11.3722 -32.2352 -0.625309 0.29167 1.07715 53.3186 -21.0966 28.8844 3.11748e-05 7.72891e-06 80.2796 19.4077 -29.6794 43.3237 66.9686 -47.7095 66.3822 171.372 77.24 -167.176 -25.4438 -15.0207 22.4335 2.24098e-07 -28.3795 -1.48933e-05 -65.7153 -78.4623 -53.7639 -67.9602 85.4891 72.8529 14.8331 -16.662 6.73516 1.32152 -2.71518 0.0450062 
9.62783 67.9803 4.13845 18.2147 -1.62464 -90.9449 -8.08139 21.3525 1.12832 -1.49235 5.16722 -0.0596285 -1.4948 5.17274 -0.039449 1.51097 -2.51886 4.13205 -4.72391 -15.2716 22.6665 -0.521612 -0.0844648 4.19873 -33.0936 -24.351 -20.0818 2.30931e-05 5.95324e-05 -70.4783 11.1402 2.03536 -26.0262 -0.562068 0.880724 9.38053 44.1471 -25.2497 27.4322 3.05968e-05 2.69153e-06 86.6292 -11.7588 -24.7575 27.2033 71.2466 -50.662 71.6916 172.869 76.8962 -168.229 -25.3347 -13.7323 21.565 7.05518e-07 -26.7251 -1.46706e-05 -86.8494 -78.2314 -72.3639 -108.194 85.8961 112.858 14.9959 -16.521 6.38593 1.62268 -4.6212 0.104331 
